<svg xmlns="http://www.w3.org/2000/svg" width="1200" height="760" font-family="Poppins, Segoe UI, Arial, sans-serif">
<defs><linearGradient id="bg" x1="0" y1="0" x2="1" y2="1"><stop offset="0%" stop-color="#060b17"/><stop offset="100%" stop-color="#111b30"/></linearGradient><linearGradient id="bar" x1="0" y1="0" x2="0" y2="1"><stop offset="0%" stop-color="#2dd4bf"/><stop offset="100%" stop-color="#0ea5e9"/></linearGradient></defs>
<rect width="1200" height="760" fill="url(#bg)"/>
<circle cx="1080" cy="60" r="160" fill="#22d3ee" opacity="0.08"/>
<circle cx="980" cy="20" r="120" fill="#34d399" opacity="0.07"/>
<text x="24" y="34" font-size="34" font-weight="700" fill="#f8fafc">Visual Summary Dashboard</text>
<text x="24" y="64" font-size="15" fill="#94a3b8">Automated Profile for Incoming CSV Data</text>
<rect x="24" y="86" width="360" height="124" rx="18" fill="#0f1b2e" stroke="#2a3a56"/>
<rect x="40" y="96" width="328" height="6" rx="3" fill="#38bdf8" opacity="0.95"/>
<circle cx="334" cy="150" r="27" fill="#38bdf8" opacity="0.18"/>
<rect x="324" y="140" width="20" height="20" rx="3.5" fill="none" stroke="#38bdf8" stroke-width="2.4"/>
<line x1="324" y1="148" x2="344" y2="148" stroke="#38bdf8" stroke-width="2.4"/>
<line x1="324" y1="155" x2="344" y2="155" stroke="#38bdf8" stroke-width="2.4"/>
<text x="44" y="132" font-size="18" font-weight="500" fill="#94a3b8">Rows</text>
<text x="44" y="184" font-size="46" font-weight="700" fill="#f8fafc">15</text>
<rect x="408" y="86" width="360" height="124" rx="18" fill="#0f1b2e" stroke="#2a3a56"/>
<rect x="424" y="96" width="328" height="6" rx="3" fill="#34d399" opacity="0.95"/>
<circle cx="718" cy="150" r="27" fill="#34d399" opacity="0.18"/>
<rect x="707" y="140" width="7" height="20" rx="2.2" fill="#34d399" opacity="0.95"/>
<rect x="716" y="143" width="7" height="17" rx="2.2" fill="#34d399" opacity="0.8"/>
<rect x="725" y="137" width="7" height="23" rx="2.2" fill="#34d399" opacity="0.65"/>
<text x="428" y="132" font-size="18" font-weight="500" fill="#94a3b8">Numeric Columns</text>
<text x="428" y="184" font-size="46" font-weight="700" fill="#f8fafc">4</text>
<rect x="792" y="86" width="384" height="124" rx="18" fill="#0f1b2e" stroke="#2a3a56"/>
<rect x="808" y="96" width="352" height="6" rx="3" fill="#f59e0b" opacity="0.95"/>
<circle cx="1126" cy="150" r="27" fill="#f59e0b" opacity="0.18"/>
<line x1="1116" y1="150" x2="1124" y2="158" stroke="#f59e0b" stroke-width="2.8" stroke-linecap="round"/>
<line x1="1124" y1="158" x2="1138" y2="140" stroke="#f59e0b" stroke-width="2.8" stroke-linecap="round"/>
<text x="812" y="132" font-size="18" font-weight="500" fill="#94a3b8">Data Completeness</text>
<text x="812" y="184" font-size="46" font-weight="700" fill="#f8fafc">100.0%</text>
<rect x="24" y="232" width="744" height="280" rx="20" fill="#0f1b2e" stroke="#2a3a56"/>
<text x="44" y="266" font-size="20" font-weight="600" fill="#e2e8f0">Column Mean Values</text>
<rect x="129.50" y="298.00" width="58.00" height="176.00" rx="9" fill="url(#bar)"/>
<text x="158.50" y="492" font-size="12" fill="#cbd5e1" text-anchor="middle">revenue</text>
<text x="158.50" y="292.00" font-size="12" fill="#e2e8f0" text-anchor="middle">1,034,830</text>
<rect x="294.50" y="472.68" width="58.00" height="1.32" rx="9" fill="url(#bar)"/>
<text x="323.50" y="492" font-size="12" fill="#cbd5e1" text-anchor="middle">price</text>
<text x="323.50" y="466.68" font-size="12" fill="#e2e8f0" text-anchor="middle">7,788</text>
<rect x="459.50" y="473.89" width="58.00" height="0.11" rx="9" fill="url(#bar)"/>
<text x="488.50" y="492" font-size="12" fill="#cbd5e1" text-anchor="middle">quantity_s</text>
<text x="488.50" y="467.89" font-size="12" fill="#e2e8f0" text-anchor="middle">624.33</text>
<rect x="624.50" y="473.95" width="58.00" height="0.05" rx="9" fill="url(#bar)"/>
<text x="653.50" y="492" font-size="12" fill="#cbd5e1" text-anchor="middle">customer_c</text>
<text x="653.50" y="467.95" font-size="12" fill="#e2e8f0" text-anchor="middle">309.8</text>
<rect x="792" y="232" width="384" height="280" rx="20" fill="#0f1b2e" stroke="#2a3a56"/>
<text x="812" y="266" font-size="20" font-weight="600" fill="#e2e8f0">Trend Preview</text>
<rect x="816" y="286" width="336" height="192" rx="12" fill="#0a1528" stroke="#2a3a56"/>
<polyline points="816.00,468.76 840.00,437.30 864.00,446.54 888.00,472.67 912.00,380.71 936.00,459.52 960.00,473.42 984.00,470.51 1008.00,478.00 1032.00,455.70 1056.00,350.42 1080.00,286.00 1104.00,406.59 1128.00,427.15 1152.00,419.74" fill="none" stroke="#f59e0b" stroke-width="3" stroke-linecap="round" stroke-linejoin="round"/>
<text x="816" y="498" font-size="12" fill="#cbd5e1">Trend: quantity_sold</text>
<text x="1152" y="498" font-size="12" fill="#cbd5e1" text-anchor="end">Min 34  Max 2,341</text>
<rect x="24" y="534" width="1152" height="220" rx="20" fill="#0f1b2e" stroke="#2a3a56"/>
<circle cx="200" cy="560" r="11" fill="#22d3ee" opacity="0.2"/>
<rect x="195" y="557" width="3" height="6" rx="1.5" fill="#22d3ee"/>
<rect x="199" y="554" width="3" height="9" rx="1.5" fill="#34d399"/>
<rect x="203" y="559" width="3" height="4" rx="1.5" fill="#f59e0b"/>
<text x="44" y="568" font-size="20" font-weight="600" fill="#e2e8f0">Quick Stats</text>
<circle cx="52" cy="588" r="4" fill="#f59e0b"/>
<text x="64" y="592" font-size="13" fill="#94a3b8">Missing Cells: 0</text>
<rect x="44.00" y="610" width="266.00" height="122" rx="14" fill="#0a1528" stroke="#2a3a56"/>
<circle cx="288.0" cy="630" r="11" fill="#22d3ee" opacity="0.18"/>
<line x1="283.0" y1="632" x2="288.0" y2="627" stroke="#22d3ee" stroke-width="2.4" stroke-linecap="round"/>
<line x1="288.0" y1="627" x2="293.0" y2="631" stroke="#22d3ee" stroke-width="2.4" stroke-linecap="round"/>
<text x="58.00" y="636" font-size="15" font-weight="600" fill="#f8fafc">quantity_sold</text>
<circle cx="70.0" cy="653" r="8.5" fill="#22d3ee" opacity="0.22"/>
<line x1="65.0" y1="653" x2="75.0" y2="653" stroke="#22d3ee" stroke-width="2.4" stroke-linecap="round"/>
<text x="88.00" y="662" font-size="14" fill="#94a3b8">Mean</text>
<text x="88.00" y="686" font-size="18" fill="#cbd5e1">624.33</text>
<circle cx="148.66666666666669" cy="653" r="8.5" fill="#34d399" opacity="0.22"/>
<polyline points="143.66666666666669,652 148.66666666666669,657 153.66666666666669,649" fill="none" stroke="#34d399" stroke-width="2.4" stroke-linecap="round" stroke-linejoin="round"/>
<text x="166.67" y="662" font-size="14" fill="#94a3b8">Min</text>
<text x="166.67" y="686" font-size="18" fill="#cbd5e1">34</text>
<circle cx="227.33333333333334" cy="653" r="8.5" fill="#f59e0b" opacity="0.22"/>
<polyline points="222.33333333333334,657 227.33333333333334,649 232.33333333333334,654" fill="none" stroke="#f59e0b" stroke-width="2.4" stroke-linecap="round" stroke-linejoin="round"/>
<text x="245.33" y="662" font-size="14" fill="#94a3b8">Max</text>
<text x="245.33" y="686" font-size="18" fill="#cbd5e1">2,341</text>
<rect x="322.00" y="610" width="266.00" height="122" rx="14" fill="#0a1528" stroke="#2a3a56"/>
<circle cx="566.0" cy="630" r="11" fill="#34d399" opacity="0.18"/>
<line x1="561.0" y1="632" x2="566.0" y2="627" stroke="#34d399" stroke-width="2.4" stroke-linecap="round"/>
<line x1="566.0" y1="627" x2="571.0" y2="631" stroke="#34d399" stroke-width="2.4" stroke-linecap="round"/>
<text x="336.00" y="636" font-size="15" font-weight="600" fill="#f8fafc">price</text>
<circle cx="348.0" cy="653" r="8.5" fill="#22d3ee" opacity="0.22"/>
<line x1="343.0" y1="653" x2="353.0" y2="653" stroke="#22d3ee" stroke-width="2.4" stroke-linecap="round"/>
<text x="366.00" y="662" font-size="14" fill="#94a3b8">Mean</text>
<text x="366.00" y="686" font-size="18" fill="#cbd5e1">7,788</text>
<circle cx="426.6666666666667" cy="653" r="8.5" fill="#34d399" opacity="0.22"/>
<polyline points="421.6666666666667,652 426.6666666666667,657 431.6666666666667,649" fill="none" stroke="#34d399" stroke-width="2.4" stroke-linecap="round" stroke-linejoin="round"/>
<text x="444.67" y="662" font-size="14" fill="#94a3b8">Min</text>
<text x="444.67" y="686" font-size="18" fill="#cbd5e1">25</text>
<circle cx="505.33333333333337" cy="653" r="8.5" fill="#f59e0b" opacity="0.22"/>
<polyline points="500.33333333333337,657 505.33333333333337,649 510.33333333333337,654" fill="none" stroke="#f59e0b" stroke-width="2.4" stroke-linecap="round" stroke-linejoin="round"/>
<text x="523.33" y="662" font-size="14" fill="#94a3b8">Max</text>
<text x="523.33" y="686" font-size="18" fill="#cbd5e1">45,000</text>
<rect x="600.00" y="610" width="266.00" height="122" rx="14" fill="#0a1528" stroke="#2a3a56"/>
<circle cx="844.0" cy="630" r="11" fill="#f59e0b" opacity="0.18"/>
<line x1="839.0" y1="632" x2="844.0" y2="627" stroke="#f59e0b" stroke-width="2.4" stroke-linecap="round"/>
<line x1="844.0" y1="627" x2="849.0" y2="631" stroke="#f59e0b" stroke-width="2.4" stroke-linecap="round"/>
<text x="614.00" y="636" font-size="15" font-weight="600" fill="#f8fafc">revenue</text>
<circle cx="626.0" cy="653" r="8.5" fill="#22d3ee" opacity="0.22"/>
<line x1="621.0" y1="653" x2="631.0" y2="653" stroke="#22d3ee" stroke-width="2.4" stroke-linecap="round"/>
<text x="644.00" y="662" font-size="14" fill="#94a3b8">Mean</text>
<text x="644.00" y="686" font-size="18" fill="#cbd5e1">1,034,830</text>
<circle cx="704.6666666666666" cy="653" r="8.5" fill="#34d399" opacity="0.22"/>
<polyline points="699.6666666666666,652 704.6666666666666,657 709.6666666666666,649" fill="none" stroke="#34d399" stroke-width="2.4" stroke-linecap="round" stroke-linejoin="round"/>
<text x="722.67" y="662" font-size="14" fill="#94a3b8">Min</text>
<text x="722.67" y="686" font-size="18" fill="#cbd5e1">18,350</text>
<circle cx="783.3333333333334" cy="653" r="8.5" fill="#f59e0b" opacity="0.22"/>
<polyline points="778.3333333333334,657 783.3333333333334,649 788.3333333333334,654" fill="none" stroke="#f59e0b" stroke-width="2.4" stroke-linecap="round" stroke-linejoin="round"/>
<text x="801.33" y="662" font-size="14" fill="#94a3b8">Max</text>
<text x="801.33" y="686" font-size="18" fill="#cbd5e1">6,525,000</text>
<rect x="878.00" y="610" width="266.00" height="122" rx="14" fill="#0a1528" stroke="#2a3a56"/>
<circle cx="1122.0" cy="630" r="11" fill="#a78bfa" opacity="0.18"/>
<line x1="1117.0" y1="632" x2="1122.0" y2="627" stroke="#a78bfa" stroke-width="2.4" stroke-linecap="round"/>
<line x1="1122.0" y1="627" x2="1127.0" y2="631" stroke="#a78bfa" stroke-width="2.4" stroke-linecap="round"/>
<text x="892.00" y="636" font-size="15" font-weight="600" fill="#f8fafc">customer_count</text>
<circle cx="904.0" cy="653" r="8.5" fill="#22d3ee" opacity="0.22"/>
<line x1="899.0" y1="653" x2="909.0" y2="653" stroke="#22d3ee" stroke-width="2.4" stroke-linecap="round"/>
<text x="922.00" y="662" font-size="14" fill="#94a3b8">Mean</text>
<text x="922.00" y="686" font-size="18" fill="#cbd5e1">309.8</text>
<circle cx="982.6666666666666" cy="653" r="8.5" fill="#34d399" opacity="0.22"/>
<polyline points="977.6666666666666,652 982.6666666666666,657 987.6666666666666,649" fill="none" stroke="#34d399" stroke-width="2.4" stroke-linecap="round" stroke-linejoin="round"/>
<text x="1000.67" y="662" font-size="14" fill="#94a3b8">Min</text>
<text x="1000.67" y="686" font-size="18" fill="#cbd5e1">17</text>
<circle cx="1061.3333333333333" cy="653" r="8.5" fill="#f59e0b" opacity="0.22"/>
<polyline points="1056.3333333333333,657 1061.3333333333333,649 1066.3333333333333,654" fill="none" stroke="#f59e0b" stroke-width="2.4" stroke-linecap="round" stroke-linejoin="round"/>
<text x="1079.33" y="662" font-size="14" fill="#94a3b8">Max</text>
<text x="1079.33" y="686" font-size="18" fill="#cbd5e1">1,170</text>
</svg>