<svg xmlns="http://www.w3.org/2000/svg" width="1200" height="760" font-family="Poppins, Segoe UI, Arial, sans-serif">
<defs><linearGradient id="bg" x1="0" y1="0" x2="1" y2="1"><stop offset="0%" stop-color="#060b17"/><stop offset="100%" stop-color="#111b30"/></linearGradient><linearGradient id="bar" x1="0" y1="0" x2="0" y2="1"><stop offset="0%" stop-color="#2dd4bf"/><stop offset="100%" stop-color="#0ea5e9"/></linearGradient></defs>
<rect width="1200" height="760" fill="url(#bg)"/>
<circle cx="1080" cy="60" r="160" fill="#22d3ee" opacity="0.08"/>
<circle cx="980" cy="20" r="120" fill="#34d399" opacity="0.07"/>
<text x="24" y="34" font-size="34" font-weight="700" fill="#f8fafc">Visual Summary Dashboard</text>
<text x="24" y="64" font-size="15" fill="#94a3b8">Automated Profile for Incoming CSV Data</text>
<rect x="24" y="86" width="228.0" height="124" rx="18" fill="#0f1b2e" stroke="#2a3a56"/>
<rect x="40" y="96" width="196.0" height="6" rx="3" fill="#38bdf8" opacity="0.95"/>
<circle cx="202.0" cy="150" r="27" fill="#38bdf8" opacity="0.18"/>
<rect x="192.0" y="140" width="20" height="20" rx="3.5" fill="none" stroke="#38bdf8" stroke-width="2.4"/>
<line x1="192.0" y1="148" x2="212.0" y2="148" stroke="#38bdf8" stroke-width="2.4"/>
<line x1="192.0" y1="155" x2="212.0" y2="155" stroke="#38bdf8" stroke-width="2.4"/>
<text x="44" y="132" font-size="18" font-weight="500" fill="#94a3b8">Rows</text>
<text x="44" y="184" font-size="46" font-weight="700" fill="#f8fafc">34020</text>
<rect x="276.0" y="86" width="228.0" height="124" rx="18" fill="#0f1b2e" stroke="#2a3a56"/>
<rect x="292.0" y="96" width="196.0" height="6" rx="3" fill="#34d399" opacity="0.95"/>
<circle cx="454.0" cy="150" r="27" fill="#34d399" opacity="0.18"/>
<rect x="443.0" y="140" width="7" height="20" rx="2.2" fill="#34d399" opacity="0.95"/>
<rect x="452.0" y="143" width="7" height="17" rx="2.2" fill="#34d399" opacity="0.8"/>
<rect x="461.0" y="137" width="7" height="23" rx="2.2" fill="#34d399" opacity="0.65"/>
<text x="296.0" y="132" font-size="18" font-weight="500" fill="#94a3b8">Numeric Columns</text>
<text x="296.0" y="184" font-size="46" font-weight="700" fill="#f8fafc">1</text>
<rect x="528" y="86" width="648" height="124" rx="18" fill="#0f1b2e" stroke="#2a3a56"/>
<rect x="544" y="96" width="616" height="6" rx="3" fill="#f59e0b" opacity="0.95"/>
<circle cx="1126" cy="150" r="27" fill="#f59e0b" opacity="0.18"/>
<line x1="1116" y1="150" x2="1124" y2="158" stroke="#f59e0b" stroke-width="2.8" stroke-linecap="round"/>
<line x1="1124" y1="158" x2="1138" y2="140" stroke="#f59e0b" stroke-width="2.8" stroke-linecap="round"/>
<text x="548" y="132" font-size="18" font-weight="500" fill="#94a3b8">Data Completeness</text>
<text x="548" y="184" font-size="46" font-weight="700" fill="#f8fafc">98.3%</text>
<rect x="24" y="232" width="480" height="280" rx="20" fill="#0f1b2e" stroke="#2a3a56"/>
<text x="44" y="266" font-size="20" font-weight="600" fill="#e2e8f0">Column Mean Values</text>
<rect x="245.00" y="298.00" width="58.00" height="176.00" rx="9" fill="url(#bar)"/>
<text x="274.00" y="492" font-size="12" fill="#cbd5e1" text-anchor="middle">Percentage</text>
<text x="274.00" y="292.00" font-size="12" fill="#e2e8f0" text-anchor="middle">20.96</text>
<rect x="528" y="232" width="648" height="280" rx="20" fill="#0f1b2e" stroke="#2a3a56"/>
<text x="548" y="266" font-size="20" font-weight="600" fill="#e2e8f0">Quick Stats</text>
<circle cx="556" cy="286" r="4" fill="#f59e0b"/>
<text x="568" y="290" font-size="13" fill="#94a3b8">Missing Cells: 3444</text>
<rect x="548.00" y="316.00" width="608.00" height="74" rx="12" fill="#0a1528" stroke="#2a3a56"/>
<text x="560.00" y="334.00" font-size="13" font-weight="600" fill="#f8fafc">Percentage</text>
<text x="560.00" y="356.00" font-size="11" fill="#94a3b8">Avg 20.96</text>
<text x="560.00" y="376.00" font-size="11" fill="#cbd5e1">0 to 100</text>
<rect x="24" y="534" width="1152" height="220" rx="20" fill="#0f1b2e" stroke="#2a3a56"/>
<text x="44" y="568" font-size="20" font-weight="600" fill="#e2e8f0">Trend Preview</text>
<rect x="48" y="588" width="1104" height="132" rx="12" fill="#0a1528" stroke="#2a3a56"/>
<text x="90" y="600.00" font-size="11" fill="#94a3b8" text-anchor="end" dominant-baseline="middle">52</text>
<line x1="94" y1="600.00" x2="100" y2="600.00" stroke="#52627d" stroke-width="1.2" opacity="0.9"/>
<line x1="100" y1="600.00" x2="1136" y2="600.00" stroke="#3a4a66" stroke-width="1.5" opacity="0.8" stroke-dasharray="5,3"/>
<text x="90" y="627.00" font-size="11" fill="#94a3b8" text-anchor="end" dominant-baseline="middle">39.25</text>
<line x1="94" y1="627.00" x2="100" y2="627.00" stroke="#52627d" stroke-width="1.2" opacity="0.9"/>
<line x1="100" y1="627.00" x2="1136" y2="627.00" stroke="#3a4a66" stroke-width="1.5" opacity="0.8" stroke-dasharray="5,3"/>
<text x="90" y="654.00" font-size="11" fill="#94a3b8" text-anchor="end" dominant-baseline="middle">26.5</text>
<line x1="94" y1="654.00" x2="100" y2="654.00" stroke="#52627d" stroke-width="1.2" opacity="0.9"/>
<line x1="100" y1="654.00" x2="1136" y2="654.00" stroke="#3a4a66" stroke-width="1.5" opacity="0.8" stroke-dasharray="5,3"/>
<text x="90" y="681.00" font-size="11" fill="#94a3b8" text-anchor="end" dominant-baseline="middle">13.75</text>
<line x1="94" y1="681.00" x2="100" y2="681.00" stroke="#52627d" stroke-width="1.2" opacity="0.9"/>
<line x1="100" y1="681.00" x2="1136" y2="681.00" stroke="#3a4a66" stroke-width="1.5" opacity="0.8" stroke-dasharray="5,3"/>
<text x="90" y="708.00" font-size="11" fill="#94a3b8" text-anchor="end" dominant-baseline="middle">1</text>
<line x1="94" y1="708.00" x2="100" y2="708.00" stroke="#52627d" stroke-width="1.2" opacity="0.9"/>
<line x1="100" y1="708.00" x2="1136" y2="708.00" stroke="#3a4a66" stroke-width="1.5" opacity="0.8" stroke-dasharray="5,3"/>
<line x1="100" y1="600" x2="100" y2="708" stroke="#52627d" stroke-width="1.2" opacity="0.9"/>
<polyline points="100.00,693.18 126.56,638.12 153.13,614.82 179.69,691.06 206.26,701.65 232.82,701.65 259.38,665.65 285.95,600.00 312.51,667.76 339.08,701.65 365.64,691.06 392.21,648.71 418.77,608.47 445.33,691.06 471.90,697.41 498.46,699.53 525.03,667.76 551.59,610.59 578.15,667.76 604.72,691.06 631.28,699.53 657.85,657.18 684.41,602.12 710.97,682.59 737.54,697.41 764.10,705.88 790.67,684.71 817.23,610.59 843.79,640.24 870.36,697.41 896.92,708.00 923.49,695.29 950.05,625.41 976.62,608.47 1003.18,701.65 1029.74,708.00 1056.31,691.06 1082.87,608.47 1109.44,633.88 1136.00,697.41" fill="none" stroke="#f59e0b" stroke-width="3" stroke-linecap="round" stroke-linejoin="round"/>
<text x="100" y="740" font-size="12" fill="#cbd5e1">Trend: Percentage</text>
<text x="1136" y="740" font-size="12" fill="#cbd5e1" text-anchor="end">Min 1  Max 52</text>
</svg>