<svg xmlns="http://www.w3.org/2000/svg" width="1200" height="760" font-family="Poppins, Segoe UI, Arial, sans-serif">
<defs><linearGradient id="bg" x1="0" y1="0" x2="1" y2="1"><stop offset="0%" stop-color="#060b17"/><stop offset="100%" stop-color="#111b30"/></linearGradient><linearGradient id="bar" x1="0" y1="0" x2="0" y2="1"><stop offset="0%" stop-color="#2dd4bf"/><stop offset="100%" stop-color="#0ea5e9"/></linearGradient></defs>
<rect width="1200" height="760" fill="url(#bg)"/>
<circle cx="1080" cy="60" r="160" fill="#22d3ee" opacity="0.08"/>
<circle cx="980" cy="20" r="120" fill="#34d399" opacity="0.07"/>
<text x="24" y="34" font-size="34" font-weight="700" fill="#f8fafc">Visual Summary Dashboard</text>
<text x="24" y="64" font-size="15" fill="#94a3b8">Automated Profile for Incoming CSV Data</text>
<rect x="24" y="86" width="228.0" height="124" rx="18" fill="#0f1b2e" stroke="#2a3a56"/>
<rect x="40" y="96" width="196.0" height="6" rx="3" fill="#38bdf8" opacity="0.95"/>
<circle cx="202.0" cy="150" r="27" fill="#38bdf8" opacity="0.18"/>
<rect x="192.0" y="140" width="20" height="20" rx="3.5" fill="none" stroke="#38bdf8" stroke-width="2.4"/>
<line x1="192.0" y1="148" x2="212.0" y2="148" stroke="#38bdf8" stroke-width="2.4"/>
<line x1="192.0" y1="155" x2="212.0" y2="155" stroke="#38bdf8" stroke-width="2.4"/>
<text x="44" y="132" font-size="18" font-weight="500" fill="#94a3b8">Rows</text>
<text x="44" y="184" font-size="46" font-weight="700" fill="#f8fafc">0</text>
<rect x="276.0" y="86" width="228.0" height="124" rx="18" fill="#0f1b2e" stroke="#2a3a56"/>
<rect x="292.0" y="96" width="196.0" height="6" rx="3" fill="#34d399" opacity="0.95"/>
<circle cx="454.0" cy="150" r="27" fill="#34d399" opacity="0.18"/>
<rect x="443.0" y="140" width="7" height="20" rx="2.2" fill="#34d399" opacity="0.95"/>
<rect x="452.0" y="143" width="7" height="17" rx="2.2" fill="#34d399" opacity="0.8"/>
<rect x="461.0" y="137" width="7" height="23" rx="2.2" fill="#34d399" opacity="0.65"/>
<text x="296.0" y="132" font-size="18" font-weight="500" fill="#94a3b8">Numeric Columns</text>
<text x="296.0" y="184" font-size="46" font-weight="700" fill="#f8fafc">0</text>
<rect x="528" y="86" width="648" height="124" rx="18" fill="#0f1b2e" stroke="#2a3a56"/>
<rect x="544" y="96" width="616" height="6" rx="3" fill="#f59e0b" opacity="0.95"/>
<circle cx="1126" cy="150" r="27" fill="#f59e0b" opacity="0.18"/>
<line x1="1116" y1="150" x2="1124" y2="158" stroke="#f59e0b" stroke-width="2.8" stroke-linecap="round"/>
<line x1="1124" y1="158" x2="1138" y2="140" stroke="#f59e0b" stroke-width="2.8" stroke-linecap="round"/>
<text x="548" y="132" font-size="18" font-weight="500" fill="#94a3b8">Data Completeness</text>
<text x="548" y="184" font-size="46" font-weight="700" fill="#f8fafc">100.0%</text>
<rect x="24" y="232" width="480" height="280" rx="20" fill="#0f1b2e" stroke="#2a3a56"/>
<text x="44" y="266" font-size="20" font-weight="600" fill="#e2e8f0">Column Mean Values</text>
<text x="44" y="300" font-size="14" fill="#94a3b8">No Numeric Columns Available for Mean Chart.</text>
<rect x="528" y="232" width="648" height="280" rx="20" fill="#0f1b2e" stroke="#2a3a56"/>
<text x="548" y="266" font-size="20" font-weight="600" fill="#e2e8f0">Quick Stats</text>
<circle cx="556" cy="286" r="4" fill="#f59e0b"/>
<text x="568" y="290" font-size="13" fill="#94a3b8">Missing Cells: 0</text>
<text x="548" y="322" font-size="14" fill="#94a3b8">No Numeric Summary Available.</text>
<rect x="24" y="534" width="1152" height="220" rx="20" fill="#0f1b2e" stroke="#2a3a56"/>
<text x="44" y="568" font-size="20" font-weight="600" fill="#e2e8f0">Trend Preview</text>
<text x="44" y="602" font-size="14" fill="#94a3b8">No Numeric Columns Available for Trend Preview.</text>
</svg>